<svg xmlns="http://www.w3.org/2000/svg" viewBox="0 0 1200 720" role="img" aria-labelledby="title desc">
	<title id="title">Monte Mail Queue Throttle comic illustration</title>
	<desc id="desc">A playful 3D comic post office scene overloaded with mail while a stressed mail carrier slows delivery with a throttle lever.</desc>
	<defs>
		<linearGradient id="sky" x1="0" x2="1" y1="0" y2="1">
			<stop offset="0" stop-color="#eaf8ff"/>
			<stop offset="0.55" stop-color="#f7fbff"/>
			<stop offset="1" stop-color="#fff0d8"/>
		</linearGradient>
		<linearGradient id="roof" x1="0" x2="1">
			<stop offset="0" stop-color="#d44837"/>
			<stop offset="1" stop-color="#8f1f28"/>
		</linearGradient>
		<linearGradient id="wall" x1="0" x2="0" y1="0" y2="1">
			<stop offset="0" stop-color="#fff3d0"/>
			<stop offset="1" stop-color="#f1b86d"/>
		</linearGradient>
		<linearGradient id="mail" x1="0" x2="1" y1="0" y2="1">
			<stop offset="0" stop-color="#ffffff"/>
			<stop offset="1" stop-color="#dceaff"/>
		</linearGradient>
		<filter id="shadow" x="-30%" y="-30%" width="160%" height="170%">
			<feDropShadow dx="0" dy="14" stdDeviation="12" flood-color="#29415f" flood-opacity="0.24"/>
		</filter>
		<filter id="pop" x="-20%" y="-20%" width="140%" height="140%">
			<feDropShadow dx="0" dy="8" stdDeviation="5" flood-color="#1d2b44" flood-opacity="0.22"/>
		</filter>
	</defs>

	<rect width="1200" height="720" fill="url(#sky)"/>
	<ellipse cx="610" cy="646" rx="470" ry="46" fill="#c9d7e8" opacity="0.42"/>

	<g opacity="0.5">
		<circle cx="146" cy="102" r="38" fill="#fff"/>
		<circle cx="185" cy="104" r="52" fill="#fff"/>
		<circle cx="228" cy="111" r="35" fill="#fff"/>
		<circle cx="927" cy="88" r="34" fill="#fff"/>
		<circle cx="968" cy="91" r="51" fill="#fff"/>
		<circle cx="1012" cy="99" r="34" fill="#fff"/>
	</g>

	<g filter="url(#shadow)">
		<path d="M300 260 585 112l292 148v352H300z" fill="url(#wall)"/>
		<path d="M252 275 585 82l340 193-28 54-312-172-307 172z" fill="url(#roof)"/>
		<path d="M392 341h381v270H392z" fill="#ffe8ad"/>
		<path d="M424 376h126v235H424z" fill="#6f93bd"/>
		<path d="M573 376h168v108H573z" fill="#a9d8ff"/>
		<path d="M573 508h168v103H573z" fill="#a9d8ff"/>
		<path d="M300 612h577v38H300z" fill="#895f3d"/>
		<path d="M397 297h378v42H397z" fill="#32445c"/>
		<text x="586" y="327" text-anchor="middle" font-family="Arial Black, Arial, sans-serif" font-size="30" fill="#fff" letter-spacing="1">MONTE POST</text>
	</g>

	<g filter="url(#pop)">
		<path d="M258 173c77 19 94 72 119 115-60-7-116-16-162-62 30 3 35-17 43-53z" fill="#ffcc4d"/>
		<path d="M210 140c110 25 150 100 190 177-88-19-160-48-227-123 40 8 41-23 37-54z" fill="#ff7b45"/>
		<path d="M268 190c74 32 104 76 129 127-62-14-112-40-158-91 25 6 27-14 29-36z" fill="#fff2a6"/>
		<text x="279" y="250" transform="rotate(-16 279 250)" text-anchor="middle" font-family="Arial Black, Arial, sans-serif" font-size="44" fill="#67301e">MAIL!</text>
	</g>

	<g filter="url(#pop)">
		<path d="M796 195c87 34 128 91 161 156-69-16-124-40-181-99 28 5 28-26 20-57z" fill="#ff7b45"/>
		<path d="M814 230c61 25 89 58 113 104-50-12-90-30-129-73 22 5 23-13 16-31z" fill="#fff2a6"/>
	</g>

	<g filter="url(#pop)">
		<g transform="translate(170 468) rotate(-13)">
			<rect width="132" height="82" rx="10" fill="url(#mail)" stroke="#7e9ab9" stroke-width="4"/>
			<path d="M8 9 66 50 124 9" fill="none" stroke="#7e9ab9" stroke-width="4"/>
			<path d="M8 74 49 43M124 74 83 43" fill="none" stroke="#b6c7d9" stroke-width="4"/>
		</g>
		<g transform="translate(822 420) rotate(18)">
			<rect width="156" height="94" rx="12" fill="url(#mail)" stroke="#7e9ab9" stroke-width="4"/>
			<path d="M10 11 78 58 146 11" fill="none" stroke="#7e9ab9" stroke-width="4"/>
			<path d="M10 84 58 50M146 84 98 50" fill="none" stroke="#b6c7d9" stroke-width="4"/>
		</g>
		<g transform="translate(486 132) rotate(7)">
			<rect width="136" height="84" rx="10" fill="url(#mail)" stroke="#7e9ab9" stroke-width="4"/>
			<path d="M8 10 68 52 128 10" fill="none" stroke="#7e9ab9" stroke-width="4"/>
		</g>
		<g transform="translate(647 152) rotate(-18)">
			<rect width="122" height="76" rx="10" fill="url(#mail)" stroke="#7e9ab9" stroke-width="4"/>
			<path d="M8 10 61 48 114 10" fill="none" stroke="#7e9ab9" stroke-width="4"/>
		</g>
	</g>

	<g filter="url(#shadow)">
		<path d="M912 532c-47 5-79 26-96 76h181c-8-52-35-78-85-76z" fill="#2f5d9c"/>
		<circle cx="911" cy="384" r="55" fill="#ffd3ad"/>
		<path d="M854 374c12-58 104-78 134-20-40-4-79-8-134 20z" fill="#2f5d9c"/>
		<path d="M865 360c36-36 91-31 119 2-43-4-79-4-119-2z" fill="#244775"/>
		<circle cx="892" cy="388" r="6" fill="#26384f"/>
		<circle cx="931" cy="388" r="6" fill="#26384f"/>
		<path d="M894 424c18 13 38 13 55-3" fill="none" stroke="#8b3c2f" stroke-width="6" stroke-linecap="round"/>
		<path d="M843 474c39 23 92 23 137 0l17 87H823z" fill="#f3c94f"/>
		<path d="M842 481c-31 22-54 54-68 97" fill="none" stroke="#ffd3ad" stroke-width="24" stroke-linecap="round"/>
		<path d="M975 481c31 22 54 54 68 97" fill="none" stroke="#ffd3ad" stroke-width="24" stroke-linecap="round"/>
		<rect x="805" y="568" width="220" height="44" rx="22" fill="#32445c"/>
		<text x="915" y="599" text-anchor="middle" font-family="Arial Black, Arial, sans-serif" font-size="23" fill="#fff">THROTTLE</text>
		<path d="M958 552l70-62" fill="none" stroke="#28384d" stroke-width="12" stroke-linecap="round"/>
		<circle cx="1038" cy="482" r="21" fill="#e74d3d" stroke="#8f1f28" stroke-width="6"/>
		<path d="M824 344c-27-25-47-20-63 14M991 346c25-27 47-24 67 9" fill="none" stroke="#2f5d9c" stroke-width="10" stroke-linecap="round"/>
	</g>

	<g filter="url(#pop)">
		<path d="M111 92h180c28 0 50 22 50 50v34c0 28-22 50-50 50h-69l-45 48v-48h-66c-28 0-50-22-50-50v-34c0-28 22-50 50-50z" fill="#ffffff" stroke="#26384f" stroke-width="6"/>
		<text x="202" y="145" text-anchor="middle" font-family="Arial Black, Arial, sans-serif" font-size="28" fill="#26384f">25/min</text>
		<text x="202" y="181" text-anchor="middle" font-family="Arial, sans-serif" font-size="24" fill="#5c6f86">not 2500</text>
	</g>

	<g opacity="0.9">
		<path d="M80 514c45-36 92-39 143-9" fill="none" stroke="#7e9ab9" stroke-width="6" stroke-dasharray="10 14"/>
		<path d="M682 94c48-34 99-37 151-8" fill="none" stroke="#7e9ab9" stroke-width="6" stroke-dasharray="10 14"/>
		<path d="M978 402c40-30 79-30 118 1" fill="none" stroke="#7e9ab9" stroke-width="6" stroke-dasharray="10 14"/>
	</g>
</svg>
